<svg width="25" height="25" viewBox="0 0 25 25" fill="none" xmlns="http://www.w3.org/2000/svg">
<path d="M3.4 13L1 15.4V18.6L3.4 21H6.6L9 18.6V15.4L6.6 13H3.4Z" fill="white" stroke="black" stroke-width="2" stroke-linecap="round" stroke-linejoin="round"/>
<path d="M18.4 13L16 15.4V18.6L18.4 21H21.6L24 18.6V15.4L21.6 13H18.4Z" fill="white" stroke="black" stroke-width="2" stroke-linecap="round" stroke-linejoin="round"/>
<path d="M5 17L6 15L7 13L8 11L8.72361 9.55279C8.893 9.214 9.23926 9 9.61803 9H15.382C15.7607 9 16.107 9.214 16.2764 9.55279L17 11L18 13L19 15L20 17" stroke="black" stroke-width="2" stroke-linecap="round"/>
<path d="M16 9L17 7L18 5L19 3H15" stroke="black" stroke-width="2" stroke-linecap="round"/>
<path d="M5 6L10 6" stroke="black" stroke-width="2" stroke-linecap="round"/>
</svg>
